<svg width="1366" height="828" viewBox="0 0 1366 828" fill="none" xmlns="http://www.w3.org/2000/svg">
<g clip-path="url(#clip0_139_850)">
<rect width="1366" height="828" fill="white"/>
<path d="M1188.22 328.748C1188.02 328.624 1187.87 328.549 1187.75 328.424C1187.38 328.026 1187.03 327.627 1186.68 327.204C1186.2 326.656 1185.78 326.108 1185.31 325.56C1184.93 325.137 1184.91 325.012 1185.18 324.514C1185.91 323.119 1186.9 321.899 1187.82 320.629C1187.95 320.455 1188.12 320.305 1188.3 320.156C1188.65 319.907 1188.97 319.956 1189.22 320.305C1190.02 321.55 1190.79 322.796 1191.56 324.041C1191.91 324.614 1191.86 324.713 1191.41 325.187C1190.79 325.834 1190.17 326.482 1189.59 327.154C1189.27 327.528 1188.99 327.951 1188.7 328.325C1188.55 328.499 1188.4 328.599 1188.22 328.748ZM1188.67 320.903C1187.62 322.248 1186.85 323.642 1186.01 324.938C1186.75 325.909 1187.45 326.83 1188.17 327.752C1189.17 326.631 1190.09 325.56 1191.09 324.439C1190.29 323.294 1189.52 322.148 1188.67 320.903Z" fill="#F178B6"/>
<path fill-rule="evenodd" clip-rule="evenodd" d="M208.043 464.789C208.068 464.316 208.117 463.843 208.167 463.37C208.159 463.259 208.154 463.152 208.149 463.046L208.149 463.046C208.137 462.819 208.127 462.603 208.093 462.398C208.068 462.249 207.918 462 207.819 462C207.669 462 207.42 462.125 207.345 462.249C207.146 462.573 206.947 462.946 206.847 463.32C206.523 464.491 206.249 465.661 206 466.857C205.851 467.554 205.826 468.251 206.075 468.924C206.225 469.297 206.449 469.596 206.897 469.596C207.345 469.596 207.594 469.297 207.719 468.924C207.843 468.575 207.893 468.202 207.918 467.828C207.943 467.317 207.962 466.813 207.98 466.309C207.999 465.804 208.018 465.3 208.043 464.789ZM204.681 481.427C204.73 481.651 204.805 481.9 205.154 481.95C205.179 481.82 205.205 481.689 205.231 481.557C205.335 481.032 205.443 480.49 205.502 479.932C205.727 478.313 205.901 476.695 206.075 475.076L206.075 475.076C206.1 474.851 206.075 474.602 206.025 474.378C205.876 473.88 205.478 473.606 205.054 473.681C204.631 473.756 204.431 474.079 204.431 474.627C204.456 475.275 204.456 475.947 204.456 476.595C204.456 476.944 204.454 477.294 204.451 477.643C204.445 478.337 204.44 479.028 204.456 479.708C204.456 480.185 204.543 480.663 204.629 481.14L204.629 481.14C204.647 481.236 204.664 481.331 204.681 481.427ZM215.322 472.499L215.322 472.499C214.988 472.582 214.647 472.666 214.319 472.685L214.08 472.707C212.294 472.874 210.528 473.039 208.74 473.158C208.441 473.183 208.093 473.108 207.819 472.984C207.445 472.834 207.47 472.436 207.819 472.261C208.018 472.162 208.242 472.112 208.441 472.112C210.807 472.037 213.174 472.012 215.54 472.211C215.589 472.211 215.639 472.236 215.689 472.261V472.411C215.568 472.438 215.446 472.468 215.322 472.499ZM203.361 471.008C203.651 470.983 203.942 470.958 204.232 470.941C204.232 470.891 204.232 470.842 204.257 470.767C204.158 470.754 204.064 470.736 203.971 470.717C203.877 470.698 203.784 470.68 203.684 470.667C202.8 470.568 201.922 470.468 201.044 470.368C200.166 470.269 199.288 470.169 198.404 470.07C198.255 470.057 198.105 470.038 197.956 470.02C197.807 470.001 197.657 469.982 197.508 469.97C197.259 469.97 197.059 470.07 197.01 470.319C196.96 470.593 197.109 470.792 197.358 470.867C197.533 470.916 197.732 470.966 197.931 470.966C198.229 470.978 198.529 470.992 198.829 471.006C199.758 471.048 200.695 471.091 201.617 471.091C202.198 471.107 202.779 471.057 203.361 471.008Z" fill="#FC733D"/>
<path d="M1314 584.231C1314.05 583.932 1314.1 583.633 1314.17 583.359C1314.47 582.438 1314.97 581.616 1315.67 580.944C1316.76 579.897 1318.06 579.798 1319.43 580.271C1319.98 580.445 1320.38 580.844 1320.65 581.342C1322.04 583.733 1320.5 587.021 1317.76 587.444C1316.02 587.718 1314.1 586.647 1314 584.231ZM1320.03 583.384C1319.95 582.463 1319.73 581.616 1318.68 581.292C1318.56 581.242 1318.41 581.168 1318.33 581.068C1317.98 580.62 1317.59 580.744 1317.16 580.919C1315.97 581.417 1314.9 583.036 1314.95 584.356C1314.97 585.327 1315.42 585.95 1316.34 586.298C1317.19 586.622 1317.96 586.498 1318.71 585.975C1319.6 585.327 1319.93 584.43 1320.03 583.384Z" fill="#FF2900"/>
<path d="M1613 354.5C1613 437.343 1507.34 547.5 1424.5 547.5C1341.66 547.5 1229 437.343 1229 354.5C1229 271.657 1300.66 159 1383.5 159C1466.34 159 1613 271.657 1613 354.5Z" fill="url(#paint0_radial_139_850)"/>
<path d="M96 332.411C96 392.757 19.2333 473 -40.9571 473C-101.148 473 -183 392.757 -183 332.411C-183 272.064 -130.937 190 -70.7462 190C-10.5558 190 96 272.064 96 332.411Z" fill="url(#paint1_radial_139_850)"/>
<rect x="139" y="141.299" width="10" height="10" transform="rotate(-32 139 141.299)" fill="#FF4800" fill-opacity="0.28"/>
<rect x="305" y="717.299" width="10" height="10" transform="rotate(-32 305 717.299)" fill="#FF4800" fill-opacity="0.28"/>
<circle cx="1060" cy="656" r="5" fill="#FF2900" fill-opacity="0.37"/>
<circle cx="1164" cy="78" r="5" fill="#FF2900" fill-opacity="0.37"/>
</g>
<defs>
<radialGradient id="paint0_radial_139_850" cx="0" cy="0" r="1" gradientUnits="userSpaceOnUse" gradientTransform="translate(1421 353.25) rotate(90) scale(194.25 192)">
<stop stop-color="#FF4800" stop-opacity="0.27"/>
<stop offset="0.458333" stop-color="#FCA909" stop-opacity="0.19"/>
<stop offset="1" stop-color="#F90013" stop-opacity="0.04"/>
</radialGradient>
<radialGradient id="paint1_radial_139_850" cx="0" cy="0" r="1" gradientUnits="userSpaceOnUse" gradientTransform="translate(-43.5 331.5) rotate(90) scale(141.5 139.5)">
<stop stop-color="#FF4800" stop-opacity="0.27"/>
<stop offset="0.458333" stop-color="#FCA909" stop-opacity="0.19"/>
<stop offset="1" stop-color="#F90013" stop-opacity="0.04"/>
</radialGradient>
<clipPath id="clip0_139_850">
<rect width="1366" height="828" fill="white"/>
</clipPath>
</defs>
</svg>
